# xmcd
# Copyright (C) 1995-1998 Ti Kan
#
# Track frame offsets:
#       150
#       23383
#       32685
#       56268
#       88498
#       101640
#       120983
#       141498
#       154995
#       182995
#
# Disc length: 2613 seconds
#
# Revision: 0
# Processed by: cddbd v1.5.2PL0 Copyright (c) Steve Scherf et al.
# Submitted via: CD-Import v1.0
#
DISCID=810a330a
DTITLE=Feelies - Crazy Rhythms
DYEAR=1980
DGENRE=
TTITLE0=The Boy With The Perpetual Nervousness
TTITLE1=Fa Ci-La
TTITLE2=Loveless Love
TTITLE3=Forces At Work
TTITLE4=Original Love
TTITLE5=Everybody's Got Something To Hide (Except Me And My Monkey)
TTITLE6=Moscow Nights
TTITLE7=Raised Eyebrows
TTITLE8=Crazy Rhythms
TTITLE9=Paint It Black
EXTD=
EXTT0=
EXTT1=
EXTT2=
EXTT3=
EXTT4=
EXTT5=
EXTT6=
EXTT7=
EXTT8=
EXTT9=
PLAYORDER=
